ffmpeg started on 2025-05-02 at 14:15:19
Report written to "D:\Convert\FFMetrics\reports\ssim_report-6.txt"
Log level: 32
Command line:
ffmpeg -hide_banner -nostdin -i "G:\\\xc0\xed\xe8\xec\xe5\\\xce\xed\xe3\xee\xe8\xed\xe3\xe8\\!_35_\xcb\xe5\xf2\xee_2024\\JamClub\\\xcf\xee\xf7\xe5\xec\xf3 \xe2\xf1\xe5 \xe7\xe0\xe1\xfb\xeb\xe8 \xec\xee\xe9 \xec\xe8\xf0\\JamClub_Naze_Boku_no_Sekai_o_Dare_mo_Oboeteinai_no_ka_05_1080p_HEVC.mkv" -i "G:\\\xc0\xed\xe8\xec\xe5\\\xce\xed\xe3\xee\xe8\xed\xe3\xe8\\!_35_\xcb\xe5\xf2\xee_2024\\JamClub\\\xcf\xee\xf7\xe5\xec\xf3 \xe2\xf1\xe5 \xe7\xe0\xe1\xfb\xeb\xe8 \xec\xee\xe9 \xec\xe8\xf0\\JamClub_Naze_Boku_no_Sekai_o_Dare_mo_Oboeteinai_no_ka_05_1080p.mp4" -lavfi "[0:v]settb=AVTB,setpts=PTS-STARTPTS,format=pix_fmts=yuv420p10,fps=24000/1001,scale=1920:1080:flags=bicubic[main];[1:v]settb=AVTB,setpts=PTS-STARTPTS,format=pix_fmts=yuv420p,fps=24000/1001,scale=1920:1080:flags=bicubic[ref];[main][ref]ssim=eof_action=endall:stats_file='D\\:/Convert/FFMetrics/logs/ssim_logfile-6.txt'" -f null -
Input #0, matroska,webm, from 'G:\Аниме\Онгоинги\!_35_Лето_2024\JamClub\Почему все забыли мой мир\JamClub_Naze_Boku_no_Sekai_o_Dare_mo_Oboeteinai_no_ka_05_1080p_HEVC.mkv':
  Metadata:
    COMPATIBLE_BRANDS: isomiso2avc1mp41
    MAJOR_BRAND     : isom
    MINOR_VERSION   : 512
    ENCODER         : Lavf61.7.100
  Duration: 00:24:02.33, start: -0.001000, bitrate: 1200 kb/s
  Stream #0:0: Video: hevc (Main 10), yuv420p10le(tv, bt709, progressive), 1920x1080 [SAR 1:1 DAR 16:9], 23.98 fps, 23.98 tbr, 1k tbn (default)
      Metadata:
        HANDLER_NAME    : VideoHandler
        VENDOR_ID       : [0][0][0][0]
        ENCODER         : Lavc61.19.100 libx265
        BPS             : 1003551
        DURATION        : 00:24:02.190708333
        NUMBER_OF_FRAMES: 34578
        NUMBER_OF_BYTES : 180914018
        _STATISTICS_WRITING_APP: mkvpropedit v66.0.0 ('Josie') 64-bit
        _STATISTICS_WRITING_DATE_UTC: 2025-04-30 11:46:23
        _STATISTICS_TAGS: BPS DURATION NUMBER_OF_FRAMES NUMBER_OF_BYTES
  Stream #0:1(eng): Audio: aac (LC), 48000 Hz, stereo, fltp (default)
      Metadata:
        HANDLER_NAME    : SoundHandler
        VENDOR_ID       : [0][0][0][0]
        ENCODER         : Lavc61.19.100 aac
        BPS             : 193404
        DURATION        : 00:24:02.285000000
        NUMBER_OF_FRAMES: 67608
        NUMBER_OF_BYTES : 34868109
        _STATISTICS_WRITING_APP: mkvpropedit v66.0.0 ('Josie') 64-bit
        _STATISTICS_WRITING_DATE_UTC: 2025-04-30 11:46:23
        _STATISTICS_TAGS: BPS DURATION NUMBER_OF_FRAMES NUMBER_OF_BYTES
Input #1, mov,mp4,m4a,3gp,3g2,mj2, from 'G:\Аниме\Онгоинги\!_35_Лето_2024\JamClub\Почему все забыли мой мир\JamClub_Naze_Boku_no_Sekai_o_Dare_mo_Oboeteinai_no_ka_05_1080p.mp4':
  Metadata:
    major_brand     : isom
    minor_version   : 512
    compatible_brands: isomiso2avc1mp41
    encoder         : Lavf60.16.100
  Duration: 00:24:02.31, start: 0.000000, bitrate: 3267 kb/s
  Stream #1:0[0x1](und): Video: h264 (High) (avc1 / 0x31637661), yuv420p(progressive), 1920x1080 [SAR 1:1 DAR 16:9], 3069 kb/s, 23.98 fps, 23.98 tbr, 90k tbn (default)
      Metadata:
        handler_name    : VideoHandler
        vendor_id       : [0][0][0][0]
  Stream #1:1[0x2](eng): Audio: aac (LC) (mp4a / 0x6134706D), 48000 Hz, stereo, fltp, 191 kb/s (default)
      Metadata:
        handler_name    : SoundHandler
        vendor_id       : [0][0][0][0]
Stream mapping:
  Stream #0:0 (hevc) -> settb:default
  Stream #1:0 (h264) -> settb:default
  ssim:default -> Stream #0:0 (wrapped_avframe)
  Stream #0:1 -> #0:1 (aac (native) -> pcm_s16le (native))
Output #0, null, to 'pipe:':
  Metadata:
    COMPATIBLE_BRANDS: isomiso2avc1mp41
    MAJOR_BRAND     : isom
    MINOR_VERSION   : 512
    encoder         : Lavf61.7.100
  Stream #0:0: Video: wrapped_avframe, yuv420p10le(tv, bt709, progressive), 1920x1080 [SAR 1:1 DAR 16:9], q=2-31, 200 kb/s, 23.98 fps, 23.98 tbn
      Metadata:
        encoder         : Lavc61.19.100 wrapped_avframe
  Stream #0:1(eng): Audio: pcm_s16le, 48000 Hz, stereo, s16, 1536 kb/s (default)
      Metadata:
        HANDLER_NAME    : SoundHandler
        VENDOR_ID       : [0][0][0][0]
        _STATISTICS_TAGS: BPS DURATION NUMBER_OF_FRAMES NUMBER_OF_BYTES
        BPS             : 193404
        DURATION        : 00:24:02.285000000
        NUMBER_OF_FRAMES: 67608
        NUMBER_OF_BYTES : 34868109
        _STATISTICS_WRITING_APP: mkvpropedit v66.0.0 ('Josie') 64-bit
        _STATISTICS_WRITING_DATE_UTC: 2025-04-30 11:46:23
        encoder         : Lavc61.19.100 pcm_s16le
frame=  111 fps=0.0 q=-0.0 size=N/A time=00:00:04.62 bitrate=N/A speed=9.03x    frame=  266 fps=260 q=-0.0 size=N/A time=00:00:11.09 bitrate=N/A speed=10.8x    frame=  457 fps=295 q=-0.0 size=N/A time=00:00:19.06 bitrate=N/A speed=12.3x    frame=  698 fps=337 q=-0.0 size=N/A time=00:00:29.11 bitrate=N/A speed=  14x    frame=  894 fps=346 q=-0.0 size=N/A time=00:00:37.28 bitrate=N/A speed=14.4x    frame= 1144 fps=369 q=-0.0 size=N/A time=00:00:47.71 bitrate=N/A speed=15.4x    frame= 1381 fps=382 q=-0.0 size=N/A time=00:00:57.59 bitrate=N/A speed=15.9x    frame= 1573 fps=380 q=-0.0 size=N/A time=00:01:05.60 bitrate=N/A speed=15.9x    frame= 1768 fps=380 q=-0.0 size=N/A time=00:01:13.74 bitrate=N/A speed=15.9x    frame= 1891 fps=367 q=-0.0 size=N/A time=00:01:18.87 bitrate=N/A speed=15.3x    frame= 2034 fps=358 q=-0.0 size=N/A time=00:01:24.83 bitrate=N/A speed=14.9x    frame= 2167 fps=350 q=-0.0 size=N/A time=00:01:30.38 bitrate=N/A speed=14.6x    frame= 2332 fps=347 q=-0.0 size=N/A time=00:01:37.26 bitrate=N/A speed=14.5x    frame= 2472 fps=342 q=-0.0 size=N/A time=00:01:43.10 bitrate=N/A speed=14.3x    frame= 2591 fps=335 q=-0.0 size=N/A time=00:01:48.06 bitrate=N/A speed=  14x    frame= 2722 fps=329 q=-0.0 size=N/A time=00:01:53.53 bitrate=N/A speed=13.7x    frame= 2841 fps=324 q=-0.0 size=N/A time=00:01:58.49 bitrate=N/A speed=13.5x    frame= 3007 fps=324 q=-0.0 size=N/A time=00:02:05.41 bitrate=N/A speed=13.5x    frame= 3137 fps=320 q=-0.0 size=N/A time=00:02:10.83 bitrate=N/A speed=13.3x    frame= 3232 fps=313 q=-0.0 size=N/A time=00:02:14.80 bitrate=N/A speed=13.1x    frame= 3390 fps=313 q=-0.0 size=N/A time=00:02:21.39 bitrate=N/A speed=  13x    frame= 3535 fps=312 q=-0.0 size=N/A time=00:02:27.43 bitrate=N/A speed=  13x    frame= 3711 fps=313 q=-0.0 size=N/A time=00:02:34.77 bitrate=N/A speed=  13x    frame= 3898 fps=315 q=-0.0 size=N/A time=00:02:42.57 bitrate=N/A speed=13.1x    frame= 4120 fps=319 q=-0.0 size=N/A time=00:02:51.88 bitrate=N/A speed=13.3x    frame= 4344 fps=324 q=-0.0 size=N/A time=00:03:01.18 bitrate=N/A speed=13.5x    frame= 4568 fps=328 q=-0.0 size=N/A time=00:03:10.52 bitrate=N/A speed=13.7x    frame= 4819 fps=333 q=-0.0 size=N/A time=00:03:20.99 bitrate=N/A speed=13.9x    frame= 5056 fps=338 q=-0.0 size=N/A time=00:03:30.87 bitrate=N/A speed=14.1x    frame= 5245 fps=339 q=-0.0 size=N/A time=00:03:38.76 bitrate=N/A speed=14.1x    frame= 5452 fps=341 q=-0.0 size=N/A time=00:03:47.39 bitrate=N/A speed=14.2x    frame= 5671 fps=343 q=-0.0 size=N/A time=00:03:56.52 bitrate=N/A speed=14.3x    frame= 5910 fps=347 q=-0.0 size=N/A time=00:04:06.49 bitrate=N/A speed=14.5x    frame= 6174 fps=352 q=-0.0 size=N/A time=00:04:17.50 bitrate=N/A speed=14.7x    frame= 6450 fps=357 q=-0.0 size=N/A time=00:04:29.01 bitrate=N/A speed=14.9x    frame= 6726 fps=362 q=-0.0 size=N/A time=00:04:40.53 bitrate=N/A speed=15.1x    frame= 6983 fps=366 q=-0.0 size=N/A time=00:04:51.24 bitrate=N/A speed=15.3x    frame= 7238 fps=369 q=-0.0 size=N/A time=00:05:01.88 bitrate=N/A speed=15.4x    frame= 7490 fps=372 q=-0.0 size=N/A time=00:05:12.39 bitrate=N/A speed=15.5x    frame= 7755 fps=376 q=-0.0 size=N/A time=00:05:23.44 bitrate=N/A speed=15.7x    frame= 8009 fps=379 q=-0.0 size=N/A time=00:05:34.04 bitrate=N/A speed=15.8x    frame= 8282 fps=382 q=-0.0 size=N/A time=00:05:45.42 bitrate=N/A speed=15.9x    frame= 8535 fps=385 q=-0.0 size=N/A time=00:05:55.98 bitrate=N/A speed=  16x    frame= 8756 fps=386 q=-0.0 size=N/A time=00:06:05.19 bitrate=N/A speed=16.1x    frame= 9021 fps=389 q=-0.0 size=N/A time=00:06:16.25 bitrate=N/A speed=16.2x    frame= 9275 fps=391 q=-0.0 size=N/A time=00:06:26.84 bitrate=N/A speed=16.3x    frame= 9531 fps=393 q=-0.0 size=N/A time=00:06:37.52 bitrate=N/A speed=16.4x    frame= 9799 fps=396 q=-0.0 size=N/A time=00:06:48.69 bitrate=N/A speed=16.5x    frame=10071 fps=398 q=-0.0 size=N/A time=00:07:00.04 bitrate=N/A speed=16.6x    frame=10304 fps=399 q=-0.0 size=N/A time=00:07:09.76 bitrate=N/A speed=16.7x    frame=10537 fps=401 q=-0.0 size=N/A time=00:07:19.48 bitrate=N/A speed=16.7x    frame=10778 fps=402 q=-0.0 size=N/A time=00:07:29.53 bitrate=N/A speed=16.8x    frame=10983 fps=402 q=-0.0 size=N/A time=00:07:38.08 bitrate=N/A speed=16.8x    frame=11191 fps=402 q=-0.0 size=N/A time=00:07:46.75 bitrate=N/A speed=16.8x    frame=11376 fps=401 q=-0.0 size=N/A time=00:07:54.47 bitrate=N/A speed=16.7x    frame=11579 fps=401 q=-0.0 size=N/A time=00:08:02.94 bitrate=N/A speed=16.7x    frame=11753 fps=400 q=-0.0 size=N/A time=00:08:10.19 bitrate=N/A speed=16.7x    frame=11940 fps=399 q=-0.0 size=N/A time=00:08:17.99 bitrate=N/A speed=16.6x    frame=12161 fps=400 q=-0.0 size=N/A time=00:08:27.21 bitrate=N/A speed=16.7x    frame=12415 fps=401 q=-0.0 size=N/A time=00:08:37.80 bitrate=N/A speed=16.7x    frame=12658 fps=402 q=-0.0 size=N/A time=00:08:47.94 bitrate=N/A speed=16.8x    frame=12891 fps=403 q=-0.0 size=N/A time=00:08:57.66 bitrate=N/A speed=16.8x    frame=13139 fps=404 q=-0.0 size=N/A time=00:09:08.00 bitrate=N/A speed=16.9x    frame=13366 fps=405 q=-0.0 size=N/A time=00:09:17.47 bitrate=N/A speed=16.9x    frame=13645 fps=407 q=-0.0 size=N/A time=00:09:29.11 bitrate=N/A speed=  17x    frame=13913 fps=409 q=-0.0 size=N/A time=00:09:40.28 bitrate=N/A speed=  17x    frame=14190 fps=411 q=-0.0 size=N/A time=00:09:51.84 bitrate=N/A speed=17.1x    frame=14448 fps=412 q=-0.0 size=N/A time=00:10:02.60 bitrate=N/A speed=17.2x    frame=14664 fps=412 q=-0.0 size=N/A time=00:10:11.61 bitrate=N/A speed=17.2x    frame=14863 fps=412 q=-0.0 size=N/A time=00:10:19.91 bitrate=N/A speed=17.2x    frame=15116 fps=413 q=-0.0 size=N/A time=00:10:30.46 bitrate=N/A speed=17.2x    frame=15388 fps=414 q=-0.0 size=N/A time=00:10:41.80 bitrate=N/A speed=17.3x    frame=15630 fps=415 q=-0.0 size=N/A time=00:10:51.90 bitrate=N/A speed=17.3x    frame=15890 fps=416 q=-0.0 size=N/A time=00:11:02.74 bitrate=N/A speed=17.4x    frame=16168 fps=418 q=-0.0 size=N/A time=00:11:14.34 bitrate=N/A speed=17.4x    frame=16433 fps=419 q=-0.0 size=N/A time=00:11:25.39 bitrate=N/A speed=17.5x    frame=16655 fps=419 q=-0.0 size=N/A time=00:11:34.65 bitrate=N/A speed=17.5x    frame=16891 fps=420 q=-0.0 size=N/A time=00:11:44.49 bitrate=N/A speed=17.5x    frame=17128 fps=420 q=-0.0 size=N/A time=00:11:54.38 bitrate=N/A speed=17.5x    frame=17377 fps=421 q=-0.0 size=N/A time=00:12:04.76 bitrate=N/A speed=17.6x    frame=17597 fps=421 q=-0.0 size=N/A time=00:12:13.94 bitrate=N/A speed=17.6x    frame=17792 fps=421 q=-0.0 size=N/A time=00:12:22.07 bitrate=N/A speed=17.5x    frame=18023 fps=421 q=-0.0 size=N/A time=00:12:31.70 bitrate=N/A speed=17.6x    frame=18243 fps=421 q=-0.0 size=N/A time=00:12:40.88 bitrate=N/A speed=17.6x    frame=18488 fps=422 q=-0.0 size=N/A time=00:12:51.10 bitrate=N/A speed=17.6x    frame=18718 fps=422 q=-0.0 size=N/A time=00:13:00.69 bitrate=N/A speed=17.6x    frame=18929 fps=422 q=-0.0 size=N/A time=00:13:09.49 bitrate=N/A speed=17.6x    frame=19150 fps=422 q=-0.0 size=N/A time=00:13:18.71 bitrate=N/A speed=17.6x    frame=19370 fps=422 q=-0.0 size=N/A time=00:13:27.89 bitrate=N/A speed=17.6x    frame=19572 fps=422 q=-0.0 size=N/A time=00:13:36.31 bitrate=N/A speed=17.6x    frame=19810 fps=422 q=-0.0 size=N/A time=00:13:46.24 bitrate=N/A speed=17.6x    frame=20045 fps=422 q=-0.0 size=N/A time=00:13:56.04 bitrate=N/A speed=17.6x    frame=20308 fps=423 q=-0.0 size=N/A time=00:14:07.01 bitrate=N/A speed=17.7x    frame=20556 fps=424 q=-0.0 size=N/A time=00:14:17.35 bitrate=N/A speed=17.7x    frame=20785 fps=424 q=-0.0 size=N/A time=00:14:26.90 bitrate=N/A speed=17.7x    frame=21067 fps=426 q=-0.0 size=N/A time=00:14:38.66 bitrate=N/A speed=17.7x    frame=21321 fps=426 q=-0.0 size=N/A time=00:14:49.26 bitrate=N/A speed=17.8x    frame=21565 fps=427 q=-0.0 size=N/A time=00:14:59.44 bitrate=N/A speed=17.8x    frame=21829 fps=428 q=-0.0 size=N/A time=00:15:10.45 bitrate=N/A speed=17.8x    frame=22064 fps=428 q=-0.0 size=N/A time=00:15:20.25 bitrate=N/A speed=17.8x    frame=22316 fps=428 q=-0.0 size=N/A time=00:15:30.76 bitrate=N/A speed=17.9x    frame=22558 fps=429 q=-0.0 size=N/A time=00:15:40.85 bitrate=N/A speed=17.9x    frame=22797 fps=429 q=-0.0 size=N/A time=00:15:50.82 bitrate=N/A speed=17.9x    frame=23056 fps=430 q=-0.0 size=N/A time=00:16:01.62 bitrate=N/A speed=17.9x    frame=23310 fps=430 q=-0.0 size=N/A time=00:16:12.22 bitrate=N/A speed=  18x    frame=23568 fps=431 q=-0.0 size=N/A time=00:16:22.98 bitrate=N/A speed=  18x    frame=23827 fps=432 q=-0.0 size=N/A time=00:16:33.78 bitrate=N/A speed=  18x    frame=24104 fps=433 q=-0.0 size=N/A time=00:16:45.33 bitrate=N/A speed=  18x    frame=24376 fps=434 q=-0.0 size=N/A time=00:16:56.68 bitrate=N/A speed=18.1x    frame=24660 fps=435 q=-0.0 size=N/A time=00:17:08.52 bitrate=N/A speed=18.1x    frame=24910 fps=435 q=-0.0 size=N/A time=00:17:18.95 bitrate=N/A speed=18.1x    frame=25155 fps=435 q=-0.0 size=N/A time=00:17:29.17 bitrate=N/A speed=18.2x    frame=25402 fps=436 q=-0.0 size=N/A time=00:17:39.47 bitrate=N/A speed=18.2x    frame=25672 fps=437 q=-0.0 size=N/A time=00:17:50.73 bitrate=N/A speed=18.2x    frame=25928 fps=437 q=-0.0 size=N/A time=00:18:01.41 bitrate=N/A speed=18.2x    frame=26188 fps=438 q=-0.0 size=N/A time=00:18:12.25 bitrate=N/A speed=18.3x    frame=26437 fps=438 q=-0.0 size=N/A time=00:18:22.64 bitrate=N/A speed=18.3x    frame=26692 fps=439 q=-0.0 size=N/A time=00:18:33.27 bitrate=N/A speed=18.3x    frame=26950 fps=439 q=-0.0 size=N/A time=00:18:44.03 bitrate=N/A speed=18.3x    frame=27209 fps=440 q=-0.0 size=N/A time=00:18:54.84 bitrate=N/A speed=18.3x    frame=27421 fps=439 q=-0.0 size=N/A time=00:19:03.68 bitrate=N/A speed=18.3x    frame=27640 fps=439 q=-0.0 size=N/A time=00:19:12.81 bitrate=N/A speed=18.3x    frame=27917 fps=440 q=-0.0 size=N/A time=00:19:24.37 bitrate=N/A speed=18.4x    frame=28190 fps=441 q=-0.0 size=N/A time=00:19:35.75 bitrate=N/A speed=18.4x    frame=28458 fps=441 q=-0.0 size=N/A time=00:19:46.93 bitrate=N/A speed=18.4x    frame=28705 fps=442 q=-0.0 size=N/A time=00:19:57.23 bitrate=N/A speed=18.4x    frame=28975 fps=442 q=-0.0 size=N/A time=00:20:08.49 bitrate=N/A speed=18.5x    frame=29238 fps=443 q=-0.0 size=N/A time=00:20:19.46 bitrate=N/A speed=18.5x    frame=29515 fps=444 q=-0.0 size=N/A time=00:20:31.02 bitrate=N/A speed=18.5x    frame=29752 fps=444 q=-0.0 size=N/A time=00:20:40.90 bitrate=N/A speed=18.5x    frame=30036 fps=445 q=-0.0 size=N/A time=00:20:52.75 bitrate=N/A speed=18.5x    frame=30293 fps=445 q=-0.0 size=N/A time=00:21:03.47 bitrate=N/A speed=18.6x    frame=30543 fps=445 q=-0.0 size=N/A time=00:21:13.89 bitrate=N/A speed=18.6x    frame=30783 fps=445 q=-0.0 size=N/A time=00:21:23.90 bitrate=N/A speed=18.6x    frame=31040 fps=446 q=-0.0 size=N/A time=00:21:34.62 bitrate=N/A speed=18.6x    frame=31314 fps=446 q=-0.0 size=N/A time=00:21:46.05 bitrate=N/A speed=18.6x    frame=31577 fps=447 q=-0.0 size=N/A time=00:21:57.02 bitrate=N/A speed=18.6x    frame=31830 fps=447 q=-0.0 size=N/A time=00:22:07.57 bitrate=N/A speed=18.7x    frame=32088 fps=448 q=-0.0 size=N/A time=00:22:18.33 bitrate=N/A speed=18.7x    frame=32316 fps=448 q=-0.0 size=N/A time=00:22:27.84 bitrate=N/A speed=18.7x    frame=32549 fps=448 q=-0.0 size=N/A time=00:22:37.56 bitrate=N/A speed=18.7x    frame=32826 fps=448 q=-0.0 size=N/A time=00:22:49.11 bitrate=N/A speed=18.7x    frame=33074 fps=448 q=-0.0 size=N/A time=00:22:59.46 bitrate=N/A speed=18.7x    frame=33243 fps=448 q=-0.0 size=N/A time=00:23:06.51 bitrate=N/A speed=18.7x    frame=33417 fps=447 q=-0.0 size=N/A time=00:23:13.76 bitrate=N/A speed=18.6x    frame=33680 fps=447 q=-0.0 size=N/A time=00:23:24.73 bitrate=N/A speed=18.7x    frame=33947 fps=448 q=-0.0 size=N/A time=00:23:35.87 bitrate=N/A speed=18.7x    frame=34218 fps=448 q=-0.0 size=N/A time=00:23:47.17 bitrate=N/A speed=18.7x    frame=34429 fps=448 q=-0.0 size=N/A time=00:23:55.97 bitrate=N/A speed=18.7x    [Parsed_ssim_10 @ 0000017fd2bd27c0] SSIM Y:0.995158 (23.149538) U:0.994519 (22.611441) V:0.994450 (22.557459) All:0.994933 (22.952861)
[out#0/null @ 0000017fc6b1c100] video:14858KiB audio:270432KiB subtitle:0KiB other streams:0KiB global headers:0KiB muxing overhead: unknown
frame=34578 fps=448 q=-0.0 Lsize=N/A time=00:24:02.19 bitrate=N/A speed=18.7x    
